<?xml version="1.0" encoding="UTF-8"?>
<svg version="1.1" viewBox="0 0 916 884" width="1280" height="1280" xmlns="http://www.w3.org/2000/svg">
<path transform="translate(449,47)" d="m0 0h11l28 2 22 4 21 6 27 11 17 9 21 13 30 20 17 11 23 15 33 22 16 10 49 32 17 11 24 16 13 10 10 10 9 13 8 16 5 19 2 17-1 19-4 17-7 16-8 13-7 9h-2l-2 4-9 8-15 10-13 6-13 4-19 3h-21l-18-4-15-6-15-9-12-8-23-15-32-21-17-11-123-80-29-19-54-35-26-17-17-11-11-7-4 2-11 14-10 18-3 7 1 4 12 8 20 13 43 28 80 52 43 28 49 32 30 20 13 10 12 11 8 7v2h2l7 8 12 15 8 12 9 15 10 21 7 19 7 27 3 18 1 11v35l-3 24-6 26-7 20-8 18-12 21-7 10-10 13-12 14-9 9-8 7-11 9-20 13-16 9-19 9-18 6-25 6-25 4h-45l-20-3-19-5-30-10-16-8-18-10-15-10-23-15-46-30-92-60-17-11-23-15-12-8-10-9-8-8-7-10-8-15-5-15-3-16v-20l4-20 6-16 9-16 11-13 10-10 15-10 16-7 15-4 8-1h27l14 3 16 6 17 9 27 18 19 12 26 17 15 10 17 11 43 28 23 15 69 45 17 11 80 52 9 6 4-1 8-9 9-15 8-15-1-5-27-18-16-10-27-18-16-10-15-10-17-11-23-15-25-16-86-56-18-12-21-16-11-9-16-16-11-14-9-13-8-13-12-23-9-25-6-24-4-26v-37l4-28 6-24 8-22 9-19 10-17 13-19 12-14 17-17 17-13 15-10 16-9 20-9 22-8 14-4 23-4zm-4 78-18 2-15 4 1 3 16 10 48 32 22 14 24 16 20 13 35 23 17 11 27 18 16 10 15 10 29 19 11 7 12 8 26 17 6 3h14l12-6 7-8 3-7 1-9-3-10-4-6-8-7-23-15-64-42-34-22-20-13-43-28-25-16-13-8-15-8-19-7-15-4-21-3zm-145 187 3 15 6 18 8 16 10 16 11 14 10 10 13 10 72 47 69 45 17 11 23 15 27 18 16 10 20 13h2l-1-8-5-16-9-21-8-14-10-13-13-14-11-9-15-11-34-22-29-19-22-14-15-10-14-9-57-37-29-19-22-14-12-8zm-141 226-10 3-9 8-4 7-1 5v12l5 10 7 7 20 13 15 10 29 19 17 11 23 15 26 17 29 19 20 13 23 15 19 12 21 11 24 8 20 4 23 1 16-1 14-3 9-1v-3l-22-15-17-11-37-24-15-10-23-15-17-11-40-26-26-17-25-16-18-12-22-14-15-10-34-22-14-8-4-1z" fill="#fff"/>
</svg>
